<?xml version="1.0" standalone="no"?>
<!DOCTYPE svg PUBLIC "-//W3C//DTD SVG 20010904//EN"
 "http://www.w3.org/TR/2001/REC-SVG-20010904/DTD/svg10.dtd">
<svg version="1.0" xmlns="http://www.w3.org/2000/svg"
 width="512.000000pt" height="512.000000pt" viewBox="0 0 512.000000 512.000000"
 preserveAspectRatio="xMidYMid meet">

<g transform="translate(0.000000,512.000000) scale(0.100000,-0.100000)"
fill="#000000" stroke="none">
<path d="M2280 5010 c-196 -25 -390 -70 -549 -129 -264 -97 -489 -223 -705
-394 -291 -231 -526 -527 -689 -867 -31 -63 -63 -135 -72 -160 -115 -323 -153
-514 -162 -810 -13 -445 61 -797 247 -1175 242 -491 621 -874 1109 -1120 71
-36 132 -65 136 -65 4 0 21 -6 38 -14 299 -132 734 -203 1079 -177 327 25 549
77 816 192 376 161 696 403 952 719 44 54 80 103 80 109 0 5 4 11 8 13 5 2 24
26 43 53 149 218 289 533 343 775 9 41 21 91 26 110 11 39 28 155 40 275 12
108 12 354 0 440 -5 39 -14 105 -19 147 -11 84 -63 306 -88 378 -54 155 -72
199 -134 325 -83 169 -88 177 -172 302 -171 255 -396 481 -662 665 -165 114
-385 225 -570 286 -217 71 -323 96 -530 122 -81 11 -484 10 -565 0z m479 -305
c385 -40 692 -148 996 -350 203 -135 353 -275 529 -495 89 -112 228 -362 286
-515 12 -33 26 -69 31 -80 30 -77 68 -229 96 -385 26 -147 23 -506 -5 -663
-32 -177 -75 -335 -118 -432 -7 -16 -24 -57 -38 -90 -64 -156 -205 -384 -317
-515 -106 -125 -149 -168 -264 -265 -102 -86 -302 -225 -324 -225 -5 0 -11 -4
-13 -8 -8 -20 -301 -149 -414 -182 -253 -74 -340 -85 -644 -85 -178 0 -294 4
-330 12 -30 7 -98 22 -150 33 -388 86 -739 279 -1026 565 -169 168 -245 265
-350 445 -337 576 -389 1293 -138 1903 304 741 991 1252 1786 1331 182 18 238
18 407 1z"/>
<path d="M2470 4340 l0 -150 93 0 93 0 1 133 c1 72 0 140 -3 150 -5 14 -18 17
-95 17 l-89 0 0 -150z"/>
<path d="M3420 4229 c-16 -27 -30 -51 -30 -54 0 -2 -20 -38 -45 -78 -25 -41
-45 -77 -45 -80 0 -12 140 -89 153 -84 22 8 151 247 140 258 -6 6 -40 27 -76
49 l-66 38 -31 -49z"/>
<path d="M1615 4239 c-27 -16 -60 -34 -73 -39 l-23 -10 31 -57 c71 -130 116
-203 124 -203 6 0 43 19 83 42 l73 41 -19 31 c-10 17 -44 75 -75 129 -32 53
-60 97 -64 97 -4 -1 -29 -14 -57 -31z"/>
<path d="M2505 3985 l-25 -24 0 -654 c0 -547 -2 -656 -14 -666 -8 -6 -19 -24
-25 -39 -7 -17 -30 -37 -59 -52 -26 -13 -117 -65 -202 -115 -85 -50 -162 -94
-170 -98 -8 -4 -24 -13 -35 -20 -12 -7 -62 -36 -113 -66 -51 -30 -99 -63 -107
-75 -36 -50 3 -126 64 -126 18 0 71 24 138 63 59 35 146 85 193 112 47 27 123
71 170 98 168 98 187 107 230 107 53 0 96 22 120 63 27 43 25 92 -5 143 l-25
43 0 642 1 642 -22 24 c-31 32 -82 31 -114 -2z"/>
<path d="M891 3524 c-24 -41 -42 -76 -40 -78 16 -13 250 -146 257 -146 5 0 12
8 15 18 7 20 39 75 49 82 3 3 9 16 12 30 6 23 -3 30 -118 98 -69 39 -127 72
-128 72 -2 0 -23 -34 -47 -76z"/>
<path d="M4128 3570 c-26 -16 -80 -46 -119 -67 -39 -21 -73 -43 -76 -49 -5
-14 65 -144 82 -150 9 -4 245 122 263 140 6 6 -84 156 -93 155 -5 0 -31 -14
-57 -29z"/>
<path d="M635 2562 l0 -87 150 0 150 0 3 88 3 87 -153 0 -153 0 0 -88z"/>
<path d="M4188 2560 l3 -90 150 0 149 0 0 90 0 90 -152 0 -153 0 3 -90z"/>
<path d="M1086 1812 c-3 -5 -27 -19 -53 -32 -43 -22 -172 -97 -182 -106 -3 -2
70 -134 85 -152 3 -5 252 137 258 147 3 4 -5 23 -17 42 -13 19 -31 51 -42 72
-19 35 -38 47 -49 29z"/>
<path d="M3972 1750 c-23 -39 -42 -74 -42 -78 0 -7 81 -57 159 -99 13 -7 41
-23 64 -35 23 -14 42 -19 44 -13 2 6 21 42 44 80 22 38 37 71 32 72 -5 2 -62
35 -128 73 -66 39 -122 70 -125 70 -3 0 -25 -32 -48 -70z"/>
<path d="M1640 1143 c-14 -25 -46 -82 -72 -127 -26 -44 -44 -83 -40 -87 21
-21 145 -79 152 -72 26 29 141 237 137 247 -5 13 -129 86 -145 86 -4 0 -19
-21 -32 -47z"/>
<path d="M3375 1154 c-33 -20 -64 -39 -68 -43 -5 -5 1 -25 12 -45 61 -106 121
-209 127 -215 6 -7 154 73 154 83 0 5 -24 50 -52 100 -29 50 -60 105 -69 121
-9 17 -23 31 -30 32 -8 1 -41 -14 -74 -33z"/>
<path d="M2498 933 l-28 -4 0 -150 0 -149 96 0 95 0 -2 150 -2 150 -53 0 c-29
0 -58 2 -66 3 -7 2 -25 2 -40 0z"/>
</g>
</svg>
